<?xml version="1.0" encoding="utf-8"?>
<!-- Generator: Adobe Illustrator 28.0.0, SVG Export Plug-In . SVG Version: 6.00 Build 0)  -->
<svg version="1.1" id="Layer_1" xmlns="http://www.w3.org/2000/svg" xmlns:xlink="http://www.w3.org/1999/xlink" x="0px" y="0px"
	 viewBox="0 0 49.2 49.2" style="enable-background:new 0 0 49.2 49.2;" xml:space="preserve">
<style type="text/css">
	.st0{fill:#006838;stroke:#2E3192;stroke-miterlimit:10;}
	.st1{fill:#00A651;}
	.st2{fill:#00AEEF;}
</style>
<g>
	<ellipse transform="matrix(0.2238 -0.9746 0.9746 0.2238 -4.8818 43.0701)" class="st0" cx="24.6" cy="24.6" rx="24.1" ry="24.1"/>
	<g>
		<path class="st1" d="M17.2,35.7l-5.3-20.9h2.9l2.5,10.6c0.6,2.6,1.2,5.2,1.6,7.2H19c0.3-2.1,1-4.6,1.7-7.2l2.8-10.5h2.8l2.5,10.6
			c0.6,2.5,1.2,5,1.5,7.2h0.1c0.4-2.3,1-4.6,1.7-7.2L34.9,15h2.8l-5.9,20.9H29L26.4,25c-0.7-2.7-1.1-4.7-1.4-6.8h-0.1
			c-0.4,2.1-0.8,4.1-1.6,6.8l-3,10.9h-3.1V35.7z"/>
	</g>
	<g>
		<path class="st2" d="M29.6,35l-2.7-4.6c-1.1-1.8-1.8-2.9-2.4-4.1h-0.1c-0.6,1.2-1.2,2.3-2.3,4.2l-2.5,4.6h-3.1l6.4-10.6l-6.1-10.4
			h3.1l2.8,4.9c0.8,1.4,1.4,2.4,1.9,3.5h0.1c0.6-1.2,1.1-2.2,1.9-3.5l2.9-4.9h3.1l-6.3,10.2L32.8,35H29.6L29.6,35z"/>
	</g>
</g>
</svg>
